<svg xmlns="http://www.w3.org/2000/svg" width="22.261" height="17" viewBox="0 0 22.261 17">
    <defs>
        <style>
            .cls-1{fill:#657288}
        </style>
    </defs>
    <path id="add-message" d="M22.261 3.478v9.174a.87.87 0 1 1-1.739 0V3.723l-7.555 4.7a3.457 3.457 0 0 1-3.674 0l-7.555-4.7v9.8a1.741 1.741 0 0 0 1.739 1.739l14.435-.026a.87.87 0 1 1 0 1.739L3.478 17A3.482 3.482 0 0 1 0 13.522V3.478A3.482 3.482 0 0 1 3.478 0h15.3a3.482 3.482 0 0 1 3.483 3.478zM19.84 2.1a1.73 1.73 0 0 0-1.058-.36H3.478a1.73 1.73 0 0 0-1.058.36l7.791 4.845a1.728 1.728 0 0 0 1.837 0zm0 0" class="cls-1"/>
</svg>
