<svg xmlns="http://www.w3.org/2000/svg" width="21.595" height="21.595" viewBox="0 0 21.595 21.595">
    <defs>
        <style>
            .cls-1{fill:#657288}
        </style>
    </defs>
    <path id="answer" d="M16.956 0a4.492 4.492 0 0 0-4.639 4.318A4.117 4.117 0 0 0 13 6.577l-.624 1.543A.844.844 0 0 0 13.5 9.207l1.882-.83a5.147 5.147 0 0 0 1.573.222 4.82 4.82 0 0 0 3.245-1.22 4.109 4.109 0 0 0 1.391-3.067A4.494 4.494 0 0 0 16.956 0zm0 6.913a3.21 3.21 0 0 1-1.271-.22.844.844 0 0 0-.671 0l-.293.129.023-.056a.844.844 0 0 0-.14-.863A2.426 2.426 0 0 1 14 4.318a2.809 2.809 0 0 1 2.952-2.631 2.81 2.81 0 0 1 2.952 2.625 2.8 2.8 0 0 1-2.948 2.601zm3.321 11.73a2.449 2.449 0 0 1-2.4 2.952H2.451a2.449 2.449 0 0 1-2.4-2.952A10.307 10.307 0 0 1 6.869 11a5.445 5.445 0 0 1 3.266-9.776c.091 0 .159 0 .238.006a.844.844 0 0 1-.08 1.685h-.159a3.754 3.754 0 0 0 0 7.508.841.841 0 0 1 .271.045 10.33 10.33 0 0 1 8.343 4.562.844.844 0 0 1-1.4.942A8.658 8.658 0 0 0 1.7 18.988a.761.761 0 0 0 .154.638.752.752 0 0 0 .593.281h15.432a.751.751 0 0 0 .593-.281.761.761 0 0 0 .154-.638.844.844 0 1 1 1.651-.345z" class="cls-1"/>
</svg>
