<svg xmlns="http://www.w3.org/2000/svg" width="21.536" height="21.494" viewBox="0 0 21.536 21.494">
    <defs>
        <style>
            .cls-1{fill:#657288}
        </style>
    </defs>
    <path id="call-back" d="M4.245 3.726a.84.84 0 1 1 .68.346.84.84 0 0 1-.68-.346zM1.064 8.982a.84.84 0 1 0-.539-1.058.846.846 0 0 0 .539 1.058zm6.621-6.319a.84.84 0 1 0-.8-.581.834.834 0 0 0 .8.581zM2.238 6.1a.84.84 0 1 0-.185-1.173.835.835 0 0 0 .185 1.173zM.017 11.412a.85.85 0 0 0 .048.157.791.791 0 0 0 .035.074.8.8 0 0 0 .042.071.687.687 0 0 0 .049.066.818.818 0 0 0 .117.117.774.774 0 0 0 .066.049.879.879 0 0 0 .145.077 1.008 1.008 0 0 0 .157.048l.081.012a.817.817 0 0 0 .165 0c.027 0 .055-.007.081-.012a.85.85 0 0 0 .157-.048.874.874 0 0 0 .145-.077.774.774 0 0 0 .066-.049.837.837 0 0 0 .166-.183.876.876 0 0 0 .077-.145 1.008 1.008 0 0 0 .048-.157l.012-.081c.003-.026 0-.055 0-.083v-.083c0-.028-.007-.055-.012-.081a.85.85 0 0 0-.048-.157.876.876 0 0 0-.077-.145.83.83 0 0 0-.166-.183.7.7 0 0 0-.066-.049.874.874 0 0 0-.145-.077 1.008 1.008 0 0 0-.157-.048 1.22 1.22 0 0 0-.081-.012.838.838 0 0 0-.165 0c-.027 0-.055.007-.081.012a.85.85 0 0 0-.157.048.879.879 0 0 0-.145.077.7.7 0 0 0-.066.049.818.818 0 0 0-.117.117.687.687 0 0 0-.049.066.8.8 0 0 0-.042.071.791.791 0 0 0-.035.074 1.008 1.008 0 0 0-.048.157.846.846 0 0 0-.017.164.85.85 0 0 0 .016.164zM20.7 2.432a.84.84 0 0 0-.84.84v2.271A10.746 10.746 0 0 0 10.748.5a.848.848 0 0 0-.093.005c-.023 0-.045.006-.068.01a.832.832 0 0 0-.257.1l-.042.025a.834.834 0 0 0-.081.06.7.7 0 0 0-.05.045l-.006.005a.687.687 0 0 0-.045.049.841.841 0 0 0-.062.083l-.024.04a.832.832 0 0 0-.1.257c0 .022-.008.045-.01.068v.011a.821.821 0 0 0 0 .165v.011c0 .022.006.045.01.067a.833.833 0 0 0 .1.257l.024.04a.845.845 0 0 0 .062.084l.044.049.007.007.049.045.013.011.048.036.021.014.041.025a.834.834 0 0 0 .258.1l.066.01h.012a.791.791 0 0 0 .082 0A9.114 9.114 0 0 1 18.5 6.543h-1.919a.84.84 0 0 0 0 1.679h2.464A2.46 2.46 0 0 0 20.8 7.5a2.512 2.512 0 0 0 .735-1.8V3.272a.84.84 0 0 0-.835-.84zm-.224 11.082a.84.84 0 1 0-.519 1.6.848.848 0 0 0 .26.041.84.84 0 0 0 .259-1.638zm-6.881 6.36a.84.84 0 1 0 1.058.539.84.84 0 0 0-1.06-.538zm5.705-3.48a.84.84 0 1 0 .185 1.173.84.84 0 0 0-.185-1.173zm-3.181 2.191a.84.84 0 1 0 1.173.185.84.84 0 0 0-1.173-.185zm5.4-7.5a.85.85 0 0 0-.048-.157.8.8 0 0 0-.035-.074 1.017 1.017 0 0 0-.042-.071.837.837 0 0 0-.232-.232.874.874 0 0 0-.145-.077 1.008 1.008 0 0 0-.157-.048 1.22 1.22 0 0 0-.081-.012.838.838 0 0 0-.165 0c-.027 0-.055.007-.081.012a.85.85 0 0 0-.157.048.879.879 0 0 0-.145.077.827.827 0 0 0-.183.166.687.687 0 0 0-.049.066.8.8 0 0 0-.042.071.791.791 0 0 0-.035.074 1.008 1.008 0 0 0-.048.157.845.845 0 0 0-.016.164.844.844 0 0 0 .246.594.846.846 0 0 0 .128.1.879.879 0 0 0 .145.077 1.008 1.008 0 0 0 .157.048.836.836 0 0 0 .328 0 .85.85 0 0 0 .157-.048.874.874 0 0 0 .145-.077.846.846 0 0 0 .128-.1.845.845 0 0 0 .246-.594v-.083c0-.028-.012-.055-.018-.082zm-9.89 10.07a.774.774 0 0 0 0-.081v-.014c0-.021-.006-.043-.01-.065a.833.833 0 0 0-.1-.259l-.024-.04-.015-.023a.555.555 0 0 0-.035-.046l-.012-.015-.043-.048-.009-.009a.958.958 0 0 0-.047-.043l-.016-.013-.046-.034-.023-.016-.039-.024a.832.832 0 0 0-.259-.1l-.063-.01a.843.843 0 0 0-.1-.006 9.114 9.114 0 0 1-7.753-4.363h1.919a.84.84 0 0 0 0-1.679H2.489A2.46 2.46 0 0 0 .736 15 2.512 2.512 0 0 0 0 16.8v2.427a.84.84 0 1 0 1.679 0v-2.274A10.747 10.747 0 0 0 10.788 22a.782.782 0 0 0 .082 0h.011c.022 0 .045-.006.067-.01a.833.833 0 0 0 .257-.1l.041-.025a.838.838 0 0 0 .083-.062.677.677 0 0 0 .048-.044l.008-.008a1 1 0 0 0 .044-.048l.012-.014a.818.818 0 0 0 .035-.047l.015-.022.025-.04a.831.831 0 0 0 .1-.258c0-.021.008-.043.01-.065v-.014a.8.8 0 0 0 0-.081zm.969-7.986l-.765.76a7.9 7.9 0 0 1-2.109-1.56l-.054-.054A7.9 7.9 0 0 1 8.109 10.2l.76-.765c.865-.886.348-1.777-.511-2.668a1.148 1.148 0 0 0-1.593-.057l-.012.011a2.922 2.922 0 0 0-.791 2.14 7.36 7.36 0 0 0 2.35 4.856 7.36 7.36 0 0 0 4.856 2.35l.005.005a2.922 2.922 0 0 0 2.14-.791l.011-.012a1.148 1.148 0 0 0-.057-1.593c-.892-.855-1.783-1.376-2.667-.507z" class="cls-1" transform="translate(0 -.501)"/>
</svg>
