<svg xmlns="http://www.w3.org/2000/svg" width="23.99" height="20.757" viewBox="0 0 23.99 20.757">
    <defs>
        <style>
            .cls-1{fill:#657288}
        </style>
    </defs>
    <path id="id-card_1_" d="M22.116 46.87v-6.747a1.876 1.876 0 0 0-1.874-1.874h-6.373a.937.937 0 0 1-.937-.937.937.937 0 1 0-.937.937.937.937 0 1 1 0 1.874 2.816 2.816 0 0 1-2.65-1.874h-5.6a1.876 1.876 0 0 0-1.874 1.874v11.385a1.876 1.876 0 0 0 1.874 1.874h16.496a1.876 1.876 0 0 0 1.874-1.874.937.937 0 0 1 1.874 0 3.753 3.753 0 0 1-3.748 3.748H3.748A3.753 3.753 0 0 1 0 51.508V40.123a3.753 3.753 0 0 1 3.748-3.748h5.6a2.812 2.812 0 0 1 5.3 0h5.6a3.753 3.753 0 0 1 3.748 3.748v6.747a.937.937 0 0 1-1.874 0zm-3.623-2.606a.937.937 0 0 0-.937-.937H6.328a.937.937 0 0 0 0 1.874h11.227a.937.937 0 0 0 .938-.937zM6.328 47.122a.937.937 0 0 0 0 1.874h9.822a.937.937 0 1 0 0-1.874z" class="cls-1" data-name="id-card (1)" transform="translate(0 -34.5)"/>
</svg>
