<svg xmlns="http://www.w3.org/2000/svg" width="70.833" height="71.027" viewBox="0 0 70.833 71.027">
    <defs>
        <style>
            .cls-1{fill:#c8d3d6}
        </style>
    </defs>
    <g id="alarm-clock" transform="translate(-.08)">
        <path id="Path_97" d="M43.4 32.252h-8.726a4.879 4.879 0 0 0-3.491-3.491V16.374a1.221 1.221 0 0 0-2.443 0v12.388a4.875 4.875 0 1 0 5.934 5.938H43.4a1.221 1.221 0 1 0 0-2.443zm-13.438 3.665a2.443 2.443 0 1 1 2.438-2.443 2.445 2.445 0 0 1-2.438 2.443z" class="cls-1" data-name="Path 97" transform="translate(5.534 3.355)"/>
        <path id="Path_98" d="M61.282 11.926l5 5a1.221 1.221 0 0 0 1.727 0A9.919 9.919 0 0 0 53.984 2.9a1.221 1.221 0 0 0 0 1.727l5.571 5.573-2.075 2.075a32.9 32.9 0 0 0-43.965 0L11.438 10.2l5.571-5.571a1.221 1.221 0 0 0 0-1.727A9.919 9.919 0 1 0 2.981 16.928a1.221 1.221 0 0 0 1.727 0l5-5 2.047 2.047a32.924 32.924 0 0 0 7.03 51.272l-3.7 3.7a1.221 1.221 0 1 0 1.727 1.727l4.214-4.214a32.9 32.9 0 0 0 28.93 0l4.214 4.214a1.221 1.221 0 0 0 1.73-1.731l-3.7-3.7a32.924 32.924 0 0 0 7.03-51.272zm5-7.3a7.49 7.49 0 0 1 .793 9.64L56.644 3.835a7.487 7.487 0 0 1 9.639.793zM3.915 14.267A7.477 7.477 0 0 1 14.347 3.835zm31.58 53.1A30.535 30.535 0 1 1 66.03 36.829 30.569 30.569 0 0 1 35.5 67.363z" class="cls-1" data-name="Path 98"/>
        <path id="Path_99" d="M29.3 10.7a1.221 1.221 0 0 0 1.221-1.221V8.253a1.221 1.221 0 1 0-2.443 0v1.222A1.222 1.222 0 0 0 29.3 10.7z" class="cls-1" data-name="Path 99" transform="translate(6.198 1.557)"/>
        <path id="Path_100" d="M29.3 50.032a1.221 1.221 0 0 0-1.221 1.221v1.221a1.221 1.221 0 0 0 2.443 0v-1.221a1.22 1.22 0 0 0-1.222-1.221z" class="cls-1" data-name="Path 100" transform="translate(6.198 11.077)"/>
        <path id="Path_101" d="M50.3 31.475h1.221a1.221 1.221 0 1 0 0-2.443H50.3a1.221 1.221 0 1 0 0 2.443z" class="cls-1" data-name="Path 101" transform="translate(10.847 6.427)"/>
        <path id="Path_102" d="M8.519 29.032H7.3a1.221 1.221 0 1 0 0 2.443h1.219a1.221 1.221 0 1 0 0-2.443z" class="cls-1" data-name="Path 102" transform="translate(1.328 6.427)"/>
        <path id="Path_103" d="M44.147 13.833l-.864.864a1.221 1.221 0 1 0 1.727 1.727l.864-.864a1.221 1.221 0 0 0-1.727-1.727z" class="cls-1" data-name="Path 103" transform="translate(9.486 2.983)"/>
        <path id="Path_104" d="M13.741 44.239l-.864.864a1.221 1.221 0 1 0 1.723 1.726l.864-.864a1.221 1.221 0 1 0-1.727-1.727z" class="cls-1" data-name="Path 104" transform="translate(2.754 9.715)"/>
        <path id="Path_105" d="M45.011 44.239a1.221 1.221 0 0 0-1.727 1.727l.864.864a1.221 1.221 0 0 0 1.726-1.73z" class="cls-1" data-name="Path 105" transform="translate(9.486 9.715)"/>
        <path id="Path_106" d="M14.6 13.833a1.221 1.221 0 0 0-1.727 1.727l.864.864a1.221 1.221 0 0 0 1.731-1.724z" class="cls-1" data-name="Path 106" transform="translate(2.754 2.983)"/>
    </g>
</svg>
