<svg xmlns="http://www.w3.org/2000/svg" width="67.75" height="94.001" viewBox="0 0 67.75 94.001">
    <defs>
        <style>
            .cls-1{opacity:.324}.cls-2{fill:#94a4be}
        </style>
    </defs>
    <g id="antenna" class="cls-1" transform="translate(-68)">
        <path id="Path_65" d="M190.154 199.59h-4.9a6.1 6.1 0 0 0-4.457-4.457v-39.148a6.08 6.08 0 1 0-2.9 0v39.148a6.1 6.1 0 0 0-4.457 4.457h-4.9a4.541 4.541 0 0 0-4.54 4.536v4.632a1.448 1.448 0 0 0 1.448 1.448h27.795a1.448 1.448 0 0 0 1.448-1.448v-4.632a4.541 4.541 0 0 0-4.537-4.536zm-13.994-49.51a3.185 3.185 0 1 1 3.185 3.185 3.188 3.188 0 0 1-3.185-3.185zm3.185 47.772a3.186 3.186 0 0 1 2.833 1.737h-5.666a3.186 3.186 0 0 1 2.833-1.736zm12.45 9.458H166.9v-3.185a1.643 1.643 0 0 1 1.641-1.641h21.618a1.643 1.643 0 0 1 1.641 1.641z" class="cls-2" data-name="Path 65" transform="translate(-77.47 -116.205)"/>
        <path id="Path_66" d="M101.875 0A33.913 33.913 0 0 0 68 33.875a33.541 33.541 0 0 0 6.853 20.42A34.163 34.163 0 0 0 92.2 66.329a1.448 1.448 0 1 0 .827-2.775 31.248 31.248 0 0 1-15.866-11.008A30.668 30.668 0 0 1 70.9 33.875a30.98 30.98 0 1 1 61.959 0 30.668 30.668 0 0 1-6.265 18.671 31.248 31.248 0 0 1-15.863 11.008 1.448 1.448 0 1 0 .827 2.775A34.163 34.163 0 0 0 128.9 54.295a33.541 33.541 0 0 0 6.853-20.42A33.913 33.913 0 0 0 101.875 0z" class="cls-2" data-name="Path 66"/>
        <path id="Path_67" d="M179.345 98.9a12.436 12.436 0 0 1 8.3 21.71 1.448 1.448 0 1 0 1.933 2.155 15.345 15.345 0 1 0-20.463 0 1.448 1.448 0 1 0 1.933-2.155 12.435 12.435 0 0 1 8.3-21.71z" class="cls-2" data-name="Path 67" transform="translate(-77.47 -77.47)"/>
        <path id="Path_68" d="M149.876 95.28a1.445 1.445 0 0 0 .579-.122 24.61 24.61 0 1 0-19.69 0 1.448 1.448 0 0 0 1.16-2.653 21.715 21.715 0 1 1 17.37 0 1.448 1.448 0 0 0 .581 2.774z" class="cls-2" data-name="Path 68" transform="translate(-38.735 -38.735)"/>
    </g>
</svg>
