<svg xmlns="http://www.w3.org/2000/svg" width="13.78" height="12.919" viewBox="0 0 13.78 12.919">
    <defs>
        <style>
            .cls-1{fill:#4c4c4c}
        </style>
    </defs>
    <g id="calendar_3_" data-name="calendar (3)" transform="translate(0 -8.7)">
        <g id="Group_41" data-name="Group 41" transform="translate(0 8.7)">
            <path id="Path_28" d="M11.627 9.561H9.9v-.43a.431.431 0 1 0-.861 0v.431H4.737v-.431a.407.407 0 0 0-.431-.431.407.407 0 0 0-.431.431v.431H2.153A2.132 2.132 0 0 0 0 11.714v7.751a2.132 2.132 0 0 0 2.153 2.153h9.474a2.132 2.132 0 0 0 2.153-2.153v-7.751a2.132 2.132 0 0 0-2.153-2.153zM.861 11.714a1.325 1.325 0 0 1 1.292-1.292h1.723v.431a.407.407 0 0 0 .431.431.407.407 0 0 0 .431-.431v-.431h4.305v.431a.431.431 0 1 0 .861 0v-.431h1.723a1.325 1.325 0 0 1 1.292 1.292v1.292H.861v-1.292zm12.058 7.751a1.325 1.325 0 0 1-1.292 1.292H2.153a1.325 1.325 0 0 1-1.292-1.291v-5.6h12.058z" class="cls-1" data-name="Path 28" transform="translate(0 -8.7)"/>
            <path id="Path_29" d="M44.364 193.137a.782.782 0 0 0 .6-.258.833.833 0 0 0 0-1.206.833.833 0 0 0-1.206 0 .782.782 0 0 0-.258.6.93.93 0 0 0 .258.6.782.782 0 0 0 .606.264z" class="cls-1" data-name="Path 29" transform="translate(-41.35 -182.371)"/>
            <path id="Path_30" d="M44.364 140.933a.782.782 0 0 0 .6-.258.833.833 0 0 0 0-1.206.833.833 0 0 0-1.206 0 .861.861 0 0 0 .6 1.464z" class="cls-1" data-name="Path 30" transform="translate(-41.35 -132.75)"/>
            <path id="Path_31" d="M96.568 193.137a.782.782 0 0 0 .6-.258.833.833 0 0 0 0-1.206.833.833 0 0 0-1.206 0 .833.833 0 0 0 0 1.206.782.782 0 0 0 .606.258z" class="cls-1" data-name="Path 31" transform="translate(-90.97 -182.371)"/>
            <path id="Path_32" d="M96.568 140.933a.782.782 0 0 0 .6-.258.833.833 0 0 0 0-1.206.833.833 0 0 0-1.206 0 .833.833 0 0 0 0 1.206.782.782 0 0 0 .606.258z" class="cls-1" data-name="Path 32" transform="translate(-90.97 -132.75)"/>
            <path id="Path_33" d="M148.771 193.137a.853.853 0 0 0 .6-1.464.833.833 0 0 0-1.206 0 .833.833 0 0 0 0 1.206.782.782 0 0 0 .606.258z" class="cls-1" data-name="Path 33" transform="translate(-140.589 -182.371)"/>
            <path id="Path_34" d="M148.771 140.933a.883.883 0 0 0 .861-.861.93.93 0 0 0-.258-.6.833.833 0 0 0-1.206 0 .833.833 0 0 0 0 1.206.782.782 0 0 0 .603.255z" class="cls-1" data-name="Path 34" transform="translate(-140.589 -132.75)"/>
            <path id="Path_35" d="M200.975 193.137a.782.782 0 0 0 .6-.258.833.833 0 0 0 0-1.206.833.833 0 0 0-1.206 0 .782.782 0 0 0-.258.6.93.93 0 0 0 .258.6.782.782 0 0 0 .606.264z" class="cls-1" data-name="Path 35" transform="translate(-190.209 -182.371)"/>
            <path id="Path_36" d="M200.975 140.933a.883.883 0 0 0 .861-.861.93.93 0 0 0-.258-.6.833.833 0 0 0-1.206 0 .833.833 0 0 0 0 1.206.782.782 0 0 0 .603.255z" class="cls-1" data-name="Path 36" transform="translate(-190.209 -132.75)"/>
        </g>
    </g>
</svg>
