<svg xmlns="http://www.w3.org/2000/svg" width="62.098" height="62.1" viewBox="0 0 62.098 62.1"><defs><style>.a{fill:#a2afc5;}.b{fill:#e8eae9;}</style></defs><g transform="translate(0)"><path class="a" d="M20.189,47.313l-9.265,5.054a8.326,8.326,0,0,0-1.487,1.058,31.03,31.03,0,0,0,39.87.1,8.219,8.219,0,0,0-1.633-1.094l-9.921-4.96a3.783,3.783,0,0,1-2.091-3.384V40.2A14.985,14.985,0,0,0,36.6,38.99a22.828,22.828,0,0,0,3.084-6.215,3.116,3.116,0,0,0,2.21-2.964V25.656a3.1,3.1,0,0,0-1.038-2.3V17.348S42.089,8,29.431,8s-11.424,9.347-11.424,9.347v6.006a3.1,3.1,0,0,0-1.038,2.3v4.155a3.115,3.115,0,0,0,1.437,2.614A20.618,20.618,0,0,0,22.162,40.2v3.8A3.787,3.787,0,0,1,20.189,47.313Z" transform="translate(1.62 1.374)"/><g transform="translate(0 0)"><path class="b" d="M31.581,0A31.031,31.031,0,0,0,11.07,54.789a8.25,8.25,0,0,1,1.473-1.048l9.265-5.054a3.785,3.785,0,0,0,1.972-3.322v-3.8A20.6,20.6,0,0,1,20.023,33.8a3.116,3.116,0,0,1-1.437-2.614V27.029a3.1,3.1,0,0,1,1.038-2.3V18.72S18.391,9.374,31.049,9.374,42.473,18.72,42.473,18.72v6.006a3.1,3.1,0,0,1,1.038,2.3v4.155a3.116,3.116,0,0,1-2.21,2.964,22.828,22.828,0,0,1-3.084,6.215,14.983,14.983,0,0,1-.939,1.207v3.892a3.782,3.782,0,0,0,2.091,3.384l9.921,4.96A8.261,8.261,0,0,1,50.92,54.9,31.043,31.043,0,0,0,31.581,0Z" transform="translate(0 0)"/></g></g></svg>