<svg xmlns="http://www.w3.org/2000/svg" width="16.775" height="19.882" viewBox="0 0 16.775 19.882"><defs><style>.a{fill:#eb5923;}</style></defs><path class="a" d="M15.416,6.186a.777.777,0,0,1,.21.579l-.392,6.446a.777.777,0,1,1-1.55-.094l.342-5.622H2.751l.571,9.375a1.556,1.556,0,0,0,1.55,1.459H11.9a1.556,1.556,0,0,0,1.551-1.459.777.777,0,0,1,1.55.094,3.111,3.111,0,0,1-3.1,2.918H4.872a3.111,3.111,0,0,1-3.1-2.918L1.15,6.765a.777.777,0,0,1,.775-.824H14.85A.777.777,0,0,1,15.416,6.186Zm1.36-2.577A.777.777,0,0,1,16,4.385H.777a.777.777,0,1,1,0-1.553H4.906A3.11,3.11,0,0,1,8,0h.777A3.11,3.11,0,0,1,11.87,2.832H16A.777.777,0,0,1,16.775,3.609Zm-10.3-.777H10.3A1.556,1.556,0,0,0,8.776,1.553H8A1.556,1.556,0,0,0,6.471,2.832Zm1.14,6.992v6.213a.777.777,0,0,0,1.553,0V9.824a.777.777,0,1,0-1.553,0Zm-2.361.389a.777.777,0,0,0-.745.807L4.66,14.9a.777.777,0,0,0,.775.746h.032a.777.777,0,0,0,.745-.807l-.155-3.883A.776.776,0,0,0,5.25,10.213Zm5.468.745-.155,3.883a.777.777,0,0,0,.745.807h.032a.777.777,0,0,0,.775-.746l.155-3.883a.777.777,0,0,0-1.552-.062Zm0,0"/></svg>