<svg xmlns="http://www.w3.org/2000/svg" width="43.766" height="33.423" viewBox="0 0 43.766 33.423">
    <defs>
        <style>
            .cls-1{fill:#00bd39}
        </style>
    </defs>
    <path id="add-message" d="M43.766 6.838v18.037a1.71 1.71 0 1 1-3.419 0V7.32l-14.853 9.236a6.8 6.8 0 0 1-7.222 0L3.419 7.32v19.264A3.423 3.423 0 0 0 6.838 30l28.379-.05a1.71 1.71 0 1 1 0 3.419l-28.379.05A6.846 6.846 0 0 1 0 26.584V6.838A6.846 6.846 0 0 1 6.838 0h30.089a6.846 6.846 0 0 1 6.839 6.838zm-4.759-2.711a3.4 3.4 0 0 0-2.08-.708H6.838a3.4 3.4 0 0 0-2.079.708l15.318 9.525a3.4 3.4 0 0 0 3.611 0zm0 0" class="cls-1"/>
</svg>
