<svg xmlns="http://www.w3.org/2000/svg" width="37" height="37" viewBox="0 0 37 37">
    <defs>
        <style>
            .cls-1{fill:#00bd39}
        </style>
    </defs>
    <path id="answer" d="M29.051 0A7.7 7.7 0 0 0 21.1 7.4a7.054 7.054 0 0 0 1.174 3.87l-1.068 2.643a1.445 1.445 0 0 0 1.923 1.864l3.225-1.422a8.818 8.818 0 0 0 2.7.381 8.259 8.259 0 0 0 5.565-2.092A7.041 7.041 0 0 0 37 7.388 7.7 7.7 0 0 0 29.051 0zm0 11.844a5.5 5.5 0 0 1-2.177-.377 1.446 1.446 0 0 0-1.15.007l-.5.221.039-.1a1.445 1.445 0 0 0-.24-1.479 4.156 4.156 0 0 1-1.03-2.716 4.812 4.812 0 0 1 5.058-4.507 4.814 4.814 0 0 1 5.058 4.5c-.003 2.452-2.272 4.451-5.058 4.451zm5.691 20.1A4.2 4.2 0 0 1 30.633 37H4.2a4.2 4.2 0 0 1-4.11-5.057 17.659 17.659 0 0 1 11.679-13.1 9.329 9.329 0 0 1 5.6-16.75c.156 0 .272 0 .408.01a1.445 1.445 0 0 1-.137 2.887c-.1 0-.171-.007-.272-.007a6.432 6.432 0 0 0 0 12.863 1.44 1.44 0 0 1 .464.078 17.7 17.7 0 0 1 14.294 7.817 1.445 1.445 0 0 1-2.4 1.614A14.834 14.834 0 0 0 2.92 32.534a1.3 1.3 0 0 0 .264 1.094 1.288 1.288 0 0 0 1.015.481h26.434a1.287 1.287 0 0 0 1.015-.481 1.3 1.3 0 0 0 .264-1.094 1.445 1.445 0 1 1 2.829-.591z" class="cls-1"/>
</svg>
