<svg xmlns="http://www.w3.org/2000/svg" id="facebook_1_" width="43.766" height="43.766" data-name="facebook (1)" viewBox="0 0 43.766 43.766">
    <defs>
        <style>
            .cls-1{fill:#fff}.cls-2{fill:#00bd39}
        </style>
    </defs>
    <path id="Path_52" d="M164.8 132.372a3.362 3.362 0 0 0-3.362-3.329h-3.078v-4.674a2.363 2.363 0 0 1 2.363-2.363h1.129a3.023 3.023 0 0 0 3.023-3.023 3.023 3.023 0 0 0-3.023-3.023h-2.78a7.436 7.436 0 0 0-7.436 7.436v5.647h-2.189a3.362 3.362 0 0 0-3.362 3.362 3.362 3.362 0 0 0 3.362 3.362h2.189v12.8h6.724v-12.8h3.082a3.362 3.362 0 0 0 3.358-3.395z" class="cls-1" data-name="Path 52" transform="translate(-133.597 -106.047)"/>
    <g id="Group_73" data-name="Group 73">
        <path id="Path_53" d="M145.077 136.532h-6.724a1.241 1.241 0 0 1-1.241-1.241v-11.564h-.948a4.6 4.6 0 0 1 0-9.207h.948v-4.406a8.687 8.687 0 0 1 8.677-8.677h2.78a4.265 4.265 0 1 1 0 8.53h-1.129a1.123 1.123 0 0 0-1.121 1.121v3.432h1.84a4.618 4.618 0 0 1 4.6 4.559 4.6 4.6 0 0 1-4.6 4.648h-1.84v11.563a1.241 1.241 0 0 1-1.242 1.242zm-5.483-2.483h4.241v-11.563a1.241 1.241 0 0 1 1.241-1.241h3.082a2.121 2.121 0 0 0 2.12-2.141 2.127 2.127 0 0 0-2.121-2.1h-3.082a1.241 1.241 0 0 1-1.241-1.241v-4.674a3.608 3.608 0 0 1 3.6-3.6h1.129a1.782 1.782 0 1 0 0-3.564h-2.78a6.2 6.2 0 0 0-6.195 6.195v5.647a1.241 1.241 0 0 1-1.235 1.233h-2.189a2.121 2.121 0 0 0 0 4.241h2.189a1.241 1.241 0 0 1 1.241 1.241v11.563z" class="cls-2" data-name="Path 53" transform="translate(-120.314 -92.766)"/>
        <path id="Path_54" d="M219.728 43.766H216.5a1.241 1.241 0 1 1 0-2.483h3.228a4.321 4.321 0 0 0 4.316-4.316V6.8a4.321 4.321 0 0 0-4.316-4.316h-18.643a1.241 1.241 0 0 1 0-2.483h18.643a6.806 6.806 0 0 1 6.8 6.8v30.166a6.806 6.806 0 0 1-6.8 6.799z" class="cls-2" data-name="Path 54" transform="translate(-182.761)"/>
        <path id="Path_55" d="M24.763 43.766H6.8a6.806 6.806 0 0 1-6.8-6.8V6.8A6.806 6.806 0 0 1 6.8 0h2.793a1.241 1.241 0 0 1 0 2.483H6.8A4.321 4.321 0 0 0 2.483 6.8v30.167A4.321 4.321 0 0 0 6.8 41.283h17.963a1.241 1.241 0 0 1 0 2.483z" class="cls-2" data-name="Path 55"/>
    </g>
</svg>
