<svg xmlns="http://www.w3.org/2000/svg" width="42.763" height="37" viewBox="0 0 42.763 37">
    <defs>
        <style>
            .cls-1{fill:#00bd39}
        </style>
    </defs>
    <path id="id-card_1_" d="M39.422 56.55V44.523a3.345 3.345 0 0 0-3.341-3.341H24.722a1.67 1.67 0 0 1-1.67-1.67 1.67 1.67 0 1 0-1.67 1.67 1.67 1.67 0 1 1 0 3.341 5.019 5.019 0 0 1-4.724-3.341H6.682a3.345 3.345 0 0 0-3.341 3.341v20.3a3.345 3.345 0 0 0 3.341 3.341h29.4a3.345 3.345 0 0 0 3.341-3.341 1.67 1.67 0 0 1 3.341 0 6.689 6.689 0 0 1-6.683 6.677H6.682A6.689 6.689 0 0 1 0 64.818v-20.3a6.689 6.689 0 0 1 6.682-6.682h9.975a5.012 5.012 0 0 1 9.45 0h9.975a6.689 6.689 0 0 1 6.682 6.682V56.55a1.67 1.67 0 0 1-3.341 0zm-6.458-4.65a1.67 1.67 0 0 0-1.67-1.67H11.279a1.67 1.67 0 0 0 0 3.341h20.015a1.67 1.67 0 0 0 1.67-1.671zM11.279 57a1.67 1.67 0 0 0 0 3.341h17.509a1.67 1.67 0 1 0 0-3.341z" class="cls-1" data-name="id-card (1)" transform="translate(0 -34.5)"/>
</svg>
