<svg xmlns="http://www.w3.org/2000/svg" id="twitter_1_" width="41.456" height="41.456" data-name="twitter (1)" viewBox="0 0 41.456 41.456">
    <defs>
        <style>
            .cls-1{fill:#00bd39}.cls-2{fill:#fff}
        </style>
    </defs>
    <g id="Group_74" data-name="Group 74">
        <path id="Path_56" d="M218.679 41.456h-3.058a1.176 1.176 0 1 1 0-2.352h3.058a4.093 4.093 0 0 0 4.088-4.088V6.44a4.093 4.093 0 0 0-4.088-4.088H201.02a1.176 1.176 0 1 1 0-2.352h17.659a6.447 6.447 0 0 1 6.44 6.44v28.576a6.447 6.447 0 0 1-6.44 6.44z" class="cls-1" data-name="Path 56" transform="translate(-183.663)"/>
        <path id="Path_57" d="M23.456 41.456H6.44A6.447 6.447 0 0 1 0 35.016V6.44A6.447 6.447 0 0 1 6.44 0h2.646a1.176 1.176 0 1 1 0 2.352H6.44A4.093 4.093 0 0 0 2.352 6.44v28.576A4.093 4.093 0 0 0 6.44 39.1h17.016a1.176 1.176 0 1 1 0 2.352z" class="cls-1" data-name="Path 57"/>
    </g>
    <path id="Path_58" d="M133.27 122.37l-3.042-1.159a4.613 4.613 0 0 0-3.148-2.812c-4.249-.987-6.49 3-6.034 5.835a5.19 5.19 0 0 0 .32 1.142 15.781 15.781 0 0 1-10.7-3.053.641.641 0 0 0-1.016.39c-.262 1.3-.194 3.665 2.869 5.593a5.489 5.489 0 0 1-1.364-.046.643.643 0 0 0-.712.845 4.882 4.882 0 0 0 4.632 3.344 3.993 3.993 0 0 1-1.249.385.64.64 0 0 0-.4 1.033 5.2 5.2 0 0 0 4.694 1.87s.179 2.084-7.2 3.371a25.008 25.008 0 0 0 8.154 1.446c12.335 0 12.341-10.311 11.871-16.3z" class="cls-2" data-name="Path 58" transform="translate(-100.685 -108.671)"/>
    <path id="Path_59" d="M105.8 128.385a26.046 26.046 0 0 1-6.023-.756c-.8-.2-1.446-.391-1.846-.521-.811-.264-1.4-.454-1.458-1.255a1.176 1.176 0 0 1 .97-1.247 20.033 20.033 0 0 0 4.778-1.316 6.173 6.173 0 0 1-2.987-2.026 1.819 1.819 0 0 1-.309-1.72 5.931 5.931 0 0 1-2.876-3.4 1.816 1.816 0 0 1 .5-1.945 5.974 5.974 0 0 1-1.336-5.062 1.829 1.829 0 0 1 1.786-1.466 1.787 1.787 0 0 1 1.1.376 14.43 14.43 0 0 0 8.476 2.865 6.8 6.8 0 0 1 1.56-5.158 5.667 5.667 0 0 1 4.373-2.029 6.873 6.873 0 0 1 1.551.184 5.615 5.615 0 0 1 3.736 3.024l2.607.993a1.176 1.176 0 0 1 .324 2.011l-1.842 1.5c.3 4.4.112 9.723-3.212 13.319-2.219 2.408-5.542 3.629-9.872 3.629zm-3.4-2.629a22 22 0 0 0 3.4.277c3.645 0 6.387-.967 8.15-2.874 2.862-3.1 2.866-8.122 2.549-12.156a1.176 1.176 0 0 1 .43-1l.738-.6-1.139-.434a1.176 1.176 0 0 1-.655-.619 3.438 3.438 0 0 0-2.341-2.146 4.521 4.521 0 0 0-1.019-.123 3.313 3.313 0 0 0-2.583 1.2 4.429 4.429 0 0 0-1 3.423 4.024 4.024 0 0 0 .248.884 1.176 1.176 0 0 1-.949 1.613 12.079 12.079 0 0 1-1.371.068 17.018 17.018 0 0 1-9.4-2.791c.044 1.063.588 2.343 2.414 3.492a1.176 1.176 0 0 1-.486 2.163 5.486 5.486 0 0 1-.616.031h-.13a3.823 3.823 0 0 0 3.243 1.772 1.176 1.176 0 0 1 .5 2.193 3.9 3.9 0 0 1-.675.289 4.068 4.068 0 0 0 2.565.827c.155 0 .315-.007.476-.02a1.177 1.177 0 0 1 1.268 1.071 2.655 2.655 0 0 1-1.282 2.232 9 9 0 0 1-2.335 1.228z" class="cls-1" data-name="Path 59" transform="translate(-87.406 -95.327)"/>
</svg>
