<svg xmlns="http://www.w3.org/2000/svg" width="30.067" height="30.06" viewBox="0 0 30.067 30.06">
    <defs>
        <style>
            .cls-1{fill:none;stroke:#4c4c4c}
        </style>
    </defs>
    <g id="network" transform="translate(-.493 -.497)">
        <path id="Path_72" d="M27.241 12.715a2.812 2.812 0 0 0-2.771 2.352c-.015 0-.027-.008-.041-.008H23.469a7.923 7.923 0 0 0-2-4.822s.008 0 .01-.007l1.876-1.87a.455.455 0 0 0 .1-.146 1.881 1.881 0 1 0-.615-.613.455.455 0 0 0-.146.1l-1.879 1.871s0 .007-.007.01a7.923 7.923 0 0 0-4.82-2V5.685a.387.387 0 0 0-.009-.047 2.343 2.343 0 1 0-.919 0 .387.387 0 0 0-.009.047v1.898a7.923 7.923 0 0 0-4.822 2s0-.007-.007-.01L6.014 5.354a.455.455 0 0 0-.146-.1 1.881 1.881 0 1 0-.613.615.455.455 0 0 0 .1.146l4.218 4.218s.007 0 .01.007a7.923 7.923 0 0 0-2 4.82H6.62c-.015 0-.027.007-.041.008a2.812 2.812 0 1 0 0 .92c.015 0 .027.008.041.008H7.58a7.92 7.92 0 0 0 1.973 4.793.435.435 0 0 0 .081.09 7.94 7.94 0 0 0 5.426 2.6v1.898a.387.387 0 0 0 .009.047 2.343 2.343 0 1 0 .919 0 .387.387 0 0 0 .009-.047v-1.883-.023a7.923 7.923 0 0 0 4.822-2s0 .007.007.01l1.875 1.875a.455.455 0 0 0 .146.1 1.881 1.881 0 1 0 .613-.615.455.455 0 0 0-.1-.146l-1.88-1.877c.008-.01.011-.023.018-.035a7.92 7.92 0 0 0 1.971-4.792H24.429c.015 0 .027-.007.041-.008a2.812 2.812 0 1 0 2.771-3.272zm-2.812-7.03a.937.937 0 1 1-.937.937.937.937 0 0 1 .937-.937zM4.277 5.216a.937.937 0 1 1 .937-.937.937.937 0 0 1-.937.937zM3.808 17.4a1.875 1.875 0 1 1 1.875-1.875A1.875 1.875 0 0 1 3.808 17.4zm20.621 6.093a.937.937 0 1 1-.937.937.937.937 0 0 1 .937-.936zM14.119 3.342a1.406 1.406 0 1 1 1.406 1.406 1.406 1.406 0 0 1-1.406-1.406zm2.812 24.37a1.406 1.406 0 1 1-1.406-1.406 1.406 1.406 0 0 1 1.406 1.406zm-1.406-5.155a7 7 0 0 1-5.089-2.194 5.167 5.167 0 0 1 3.791-4.38.469.469 0 0 0 .109-.872 2.03 2.03 0 0 1-1.154-1.928 2.343 2.343 0 0 1 4.687 0 2.03 2.03 0 0 1-1.154 1.928.469.469 0 0 0 .109.872 5.167 5.167 0 0 1 3.791 4.38 7 7 0 0 1-5.089 2.194zm5.848-3.136a6.132 6.132 0 0 0-3.427-4.051 2.961 2.961 0 0 0 .86-2.187 3.281 3.281 0 1 0-6.561 0 2.961 2.961 0 0 0 .86 2.187 6.132 6.132 0 0 0-3.427 4.051 7.03 7.03 0 1 1 11.7 0zm5.868-2.021a1.875 1.875 0 1 1 1.875-1.875 1.875 1.875 0 0 1-1.875 1.875z" class="cls-1" data-name="Path 72"/>
        <path id="Path_73" d="M7.824 49.137l-1.875 1.875a.455.455 0 0 0-.1.146 1.881 1.881 0 1 0 .615.613.455.455 0 0 0 .146-.1L8.488 49.8a.469.469 0 1 0-.663-.663zm-2.949 4.55a.937.937 0 1 1 .937-.937.937.937 0 0 1-.937.937z" class="cls-1" data-name="Path 73" transform="translate(-1.066 -25.506)"/>
        <path id="Path_74" d="M16.075 45.137l-.937.937a.469.469 0 1 0 .663.663l.937-.937a.469.469 0 1 0-.663-.663z" class="cls-1" data-name="Path 74" transform="translate(-7.443 -23.381)"/>
        <path id="Path_75" d="M55.469 6.875a.469.469 0 0 0 .331-.137l.937-.937a.469.469 0 1 0-.663-.663l-.937.937a.469.469 0 0 0 .331.8z" class="cls-1" data-name="Path 75" transform="translate(-28.696 -2.127)"/>
    </g>
</svg>
