<svg xmlns="http://www.w3.org/2000/svg" width="23" height="18.283" viewBox="0 0 23 18.283">
    <defs>
        <style>
            .cls-1{fill:#4c4c4c}
        </style>
    </defs>
    <g id="dashboard_2_" data-name="dashboard (2)" transform="translate(0 -52.499)">
        <g id="Group_52" data-name="Group 52" transform="translate(0 52.499)">
            <g id="Group_51" data-name="Group 51">
                <path id="Path_39" d="M206.77 123.761a.9.9 0 0 0-1.141-.107c-1.344.916-8.087 5.524-8.812 6.249a2.7 2.7 0 0 0 3.812 3.812c.725-.725 5.332-7.468 6.249-8.812a.9.9 0 0 0-.108-1.142zm-7.412 8.683a.9.9 0 0 1-1.271-1.27c.282-.278 2.2-1.644 4.551-3.281-1.638 2.355-3.002 4.27-3.28 4.551z" class="cls-1" data-name="Path 39" transform="translate(-187.222 -120.309)"/>
                <path id="Path_40" d="M4.143 68.178l-1.109.541a9.658 9.658 0 0 1-.606-8.165l1.271.61a.9.9 0 1 0 .777-1.62l-1.255-.6a9.716 9.716 0 0 1 7.38-4.6v1.351a.9.9 0 1 0 1.8 0v-1.359a9.592 9.592 0 0 1 3.089.814.9.9 0 1 0 .739-1.638A11.491 11.491 0 0 0 1.948 70.383a.9.9 0 0 0 1.141.308l1.842-.9a.9.9 0 1 0-.788-1.615z" class="cls-1" data-name="Path 40" transform="translate(0 -52.499)"/>
                <path id="Path_41" d="M394.462 192.023a.9.9 0 1 0-1.638.739 9.672 9.672 0 0 1-.387 8.714l-1.158-.551a.9.9 0 0 0-.773 1.622l1.887.9a.9.9 0 0 0 1.133-.312 11.473 11.473 0 0 0 .935-11.111z" class="cls-1" data-name="Path 41" transform="translate(-372.475 -185.25)"/>
            </g>
        </g>
    </g>
</svg>
