<svg xmlns="http://www.w3.org/2000/svg" width="26.394" height="26.395" viewBox="0 0 26.394 26.395">
    <defs>
        <style>
            .cls-1{fill:#4c4c4c}
        </style>
    </defs>
    <path id="exit" d="M19.11 20.208v2.062a4.129 4.129 0 0 1-4.124 4.124H4.624A4.129 4.129 0 0 1 .5 22.27V4.124A4.129 4.129 0 0 1 4.624 0h10.362a4.129 4.129 0 0 1 4.124 4.124v2.062a1.031 1.031 0 1 1-2.062 0V4.124a2.065 2.065 0 0 0-2.062-2.062H4.624a2.065 2.065 0 0 0-2.062 2.062V22.27a2.065 2.065 0 0 0 2.062 2.062h10.362a2.065 2.065 0 0 0 2.062-2.062v-2.062a1.031 1.031 0 0 1 2.062 0zm7.029-8.782l-2.308-2.309a1.031 1.031 0 1 0-1.458 1.458l1.642 1.642h-12.38a1.031 1.031 0 1 0 0 2.062h12.38l-1.642 1.642a1.031 1.031 0 1 0 1.458 1.458l2.309-2.309a2.58 2.58 0 0 0 0-3.644zm0 0" class="cls-1" transform="translate(-.5)"/>
</svg>
