<svg xmlns="http://www.w3.org/2000/svg" id="user_5_" width="23" height="23" data-name="user (5)" viewBox="0 0 23 23">
    <defs>
        <style>
            .cls-1{fill:#4c4c4c}
        </style>
    </defs>
    <g id="Group_53" data-name="Group 53">
        <path id="Path_42" d="M22.942 19.708a.9.9 0 0 0-1.759.366.939.939 0 0 1-.19.787.913.913 0 0 1-.719.342H2.727a.913.913 0 0 1-.719-.342.939.939 0 0 1-.19-.787 9.926 9.926 0 0 1 9.444-7.86h.477a9.884 9.884 0 0 1 7.982 4.386.9.9 0 1 0 1.492-1 11.686 11.686 0 0 0-6.055-4.6 6.109 6.109 0 1 0-7.313 0 11.686 11.686 0 0 0-7.786 8.708A2.73 2.73 0 0 0 2.727 23h17.547a2.73 2.73 0 0 0 2.668-3.292zM7.188 6.109a4.312 4.312 0 1 1 4.531 4.307h-.435a4.318 4.318 0 0 1-4.096-4.307z" class="cls-1" data-name="Path 42"/>
    </g>
</svg>
