<svg xmlns="http://www.w3.org/2000/svg" width="26.398" height="26.398" viewBox="0 0 26.398 26.398">
    <defs>
        <style>
            .cls-1{fill:#4c4c4c}
        </style>
    </defs>
    <path id="settings_3_" d="M16.808 23.3v-.519a.345.345 0 0 1 .219-.315l.019-.008a.346.346 0 0 1 .379.068l.367.367a3.1 3.1 0 0 0 4.375 0 1.031 1.031 0 0 0-1.458-1.458 1.032 1.032 0 0 1-1.458 0l-.367-.367a2.4 2.4 0 0 0-2.631-.513l-.013.005a2.4 2.4 0 0 0-1.494 2.222v.518a1.032 1.032 0 0 1-1.031 1.031h-1.031a1.032 1.032 0 0 1-1.032-1.031v-.519a2.4 2.4 0 0 0-1.494-2.221l-.015-.006a2.4 2.4 0 0 0-2.629.514l-.367.367a1.032 1.032 0 0 1-1.458 0l-.729-.725a1.031 1.031 0 0 1 0-1.458l.367-.367a2.4 2.4 0 0 0 .515-2.627l-.007-.017a2.4 2.4 0 0 0-2.222-1.494h-.519a1.032 1.032 0 0 1-1.031-1.031v-1.032a1.032 1.032 0 0 1 1.031-1.031h.519a2.4 2.4 0 0 0 2.221-1.494l.006-.015a2.4 2.4 0 0 0-.514-2.629l-.366-.368a1.032 1.032 0 0 1 0-1.458l.729-.729a1.031 1.031 0 0 1 1.458 0l.367.367a2.4 2.4 0 0 0 2.631.513l.013-.005a2.4 2.4 0 0 0 1.494-2.222v-.519a1.032 1.032 0 0 1 1.031-1.031h1.031a1.032 1.032 0 0 1 1.031 1.031v.519a2.4 2.4 0 0 0 1.495 2.221l.015.006a2.4 2.4 0 0 0 2.629-.514l.367-.367a1.031 1.031 0 0 1 1.458 0l.729.729a1.032 1.032 0 0 1 0 1.458l-.367.367a2.4 2.4 0 0 0-.514 2.629l.006.015a2.4 2.4 0 0 0 2.222 1.494h.515a1.032 1.032 0 0 1 1.031 1.031v1.031a1.032 1.032 0 0 1-1.031 1.033h-.519a2.4 2.4 0 0 0-2.221 1.494l-.006.015a2.4 2.4 0 0 0 .514 2.629 1.031 1.031 0 0 0 1.458-1.458.346.346 0 0 1-.067-.381l.007-.017a.344.344 0 0 1 .315-.219h.519a3.1 3.1 0 0 0 3.1-3.094v-1.031a3.1 3.1 0 0 0-3.1-3.094h-.519a.345.345 0 0 1-.315-.219l-.008-.019a.346.346 0 0 1 .068-.379l.367-.367a3.1 3.1 0 0 0 0-4.375l-.725-.731a3.093 3.093 0 0 0-4.375 0l-.367.367a.345.345 0 0 1-.377.068l-.021-.009a.344.344 0 0 1-.219-.315v-.517A3.1 3.1 0 0 0 13.715 0h-1.031A3.1 3.1 0 0 0 9.59 3.094v.519a.345.345 0 0 1-.219.315l-.019.008a.346.346 0 0 1-.379-.068L8.606 3.5a3.094 3.094 0 0 0-4.375 0l-.731.731a3.1 3.1 0 0 0 0 4.375l.367.367a.346.346 0 0 1 .068.379l-.008.019a.344.344 0 0 1-.315.219h-.518A3.1 3.1 0 0 0 0 12.684v1.031a3.1 3.1 0 0 0 3.094 3.094h.519a.345.345 0 0 1 .316.219l.008.019a.346.346 0 0 1-.068.379l-.367.367a3.094 3.094 0 0 0 0 4.375l.729.729a3.1 3.1 0 0 0 4.375 0l.367-.367a.345.345 0 0 1 .377-.068l.021.009a.344.344 0 0 1 .219.315v.514a3.1 3.1 0 0 0 3.094 3.1h1.031a3.1 3.1 0 0 0 3.093-3.1z" class="cls-1" data-name="settings (3)"/>
</svg>
