<svg xmlns="http://www.w3.org/2000/svg" width="41.93" height="32.021" viewBox="0 0 41.93 32.021">
    <defs>
        <style>
            .cls-1{fill:#4c4c4c}
        </style>
    </defs>
    <path id="add-message" d="M41.93 6.552v17.28a1.638 1.638 0 1 1-3.276 0V7.013l-14.229 8.848a6.511 6.511 0 0 1-6.919 0L3.276 7.013v18.456a3.28 3.28 0 0 0 3.276 3.276L33.74 28.7a1.638 1.638 0 0 1 0 3.276l-27.189.048A6.559 6.559 0 0 1 0 25.469V6.552A6.559 6.559 0 0 1 6.552 0h28.826a6.559 6.559 0 0 1 6.552 6.552zm-4.559-2.6a3.259 3.259 0 0 0-1.992-.678H6.552a3.258 3.258 0 0 0-1.992.678l14.676 9.126a3.255 3.255 0 0 0 3.459 0zm0 0" class="cls-1"/>
</svg>
