<svg xmlns="http://www.w3.org/2000/svg" width="35.448" height="35.448" viewBox="0 0 35.448 35.448">
    <defs>
        <style>
            .cls-1{fill:#4c4c4c}
        </style>
    </defs>
    <path id="answer" d="M27.833 0a7.374 7.374 0 0 0-7.616 7.088 6.759 6.759 0 0 0 1.125 3.712l-1.024 2.532a1.385 1.385 0 0 0 1.842 1.786l3.09-1.362a8.448 8.448 0 0 0 2.582.365 7.912 7.912 0 0 0 5.332-2 6.746 6.746 0 0 0 2.283-5.035A7.377 7.377 0 0 0 27.833 0zm0 11.347a5.268 5.268 0 0 1-2.086-.362 1.385 1.385 0 0 0-1.1.007l-.481.212.037-.093a1.385 1.385 0 0 0-.23-1.417 3.982 3.982 0 0 1-.985-2.607 4.61 4.61 0 0 1 4.846-4.318 4.612 4.612 0 0 1 4.846 4.309 4.6 4.6 0 0 1-4.847 4.269zM33.285 30.6a4.02 4.02 0 0 1-3.937 4.845H4.023A4.02 4.02 0 0 1 .086 30.6a16.919 16.919 0 0 1 11.19-12.545 8.938 8.938 0 0 1 5.361-16.047c.15 0 .261 0 .391.01a1.385 1.385 0 0 1-.128 2.766c-.1 0-.164-.007-.26-.007a6.162 6.162 0 0 0 0 12.324 1.38 1.38 0 0 1 .445.074 16.956 16.956 0 0 1 13.695 7.489 1.385 1.385 0 0 1-2.3 1.547A14.212 14.212 0 0 0 2.8 31.169a1.249 1.249 0 0 0 .253 1.048 1.234 1.234 0 0 0 .973.461h25.322a1.233 1.233 0 0 0 .973-.461 1.249 1.249 0 0 0 .253-1.048 1.385 1.385 0 1 1 2.711-.567z" class="cls-1" transform="translate(-.001)"/>
</svg>
