<svg xmlns="http://www.w3.org/2000/svg" width="18.988" height="19.016" viewBox="0 0 18.988 19.016"><defs><style>.a{fill:#657288;}</style></defs><g transform="translate(-0.344 0)"><g transform="translate(0.344 0)"><path class="a" d="M15.359,38.086A1.87,1.87,0,0,0,14,37.464a1.934,1.934,0,0,0-1.373.618l-1.268,1.264c-.1-.056-.209-.108-.309-.161-.144-.072-.281-.14-.4-.213a13.784,13.784,0,0,1-3.3-3.01,8.132,8.132,0,0,1-1.084-1.71c.329-.3.634-.614.931-.915.112-.112.225-.229.337-.341a1.841,1.841,0,0,0,0-2.777l-1.1-1.1c-.124-.124-.253-.253-.373-.381-.241-.249-.494-.506-.755-.746a1.9,1.9,0,0,0-1.344-.59A1.966,1.966,0,0,0,2.6,28L2.6,28,1.232,29.381a2.936,2.936,0,0,0-.871,1.866,7.035,7.035,0,0,0,.514,2.978,17.28,17.28,0,0,0,3.07,5.121,18.887,18.887,0,0,0,6.289,4.924,9.8,9.8,0,0,0,3.532,1.043c.084,0,.173.008.253.008a3.024,3.024,0,0,0,2.316-1c0-.008.012-.012.016-.02a9.124,9.124,0,0,1,.7-.726c.173-.165.349-.337.522-.518a2,2,0,0,0,.606-1.389,1.929,1.929,0,0,0-.618-1.377ZM16.8,42.312s0,0,0,0c-.157.169-.317.321-.49.49a10.553,10.553,0,0,0-.775.8,1.935,1.935,0,0,1-1.509.638c-.06,0-.124,0-.185,0a8.7,8.7,0,0,1-3.13-.939,17.828,17.828,0,0,1-5.924-4.639,16.293,16.293,0,0,1-2.89-4.812,5.73,5.73,0,0,1-.449-2.512A1.842,1.842,0,0,1,2,30.143l1.369-1.369a.912.912,0,0,1,.61-.285.858.858,0,0,1,.586.281l.012.012c.245.229.478.466.722.718.124.128.253.257.381.389l1.1,1.1a.766.766,0,0,1,0,1.244c-.116.116-.229.233-.345.345-.337.345-.658.666-1.007.979-.008.008-.016.012-.02.02a.819.819,0,0,0-.209.911l.012.036a8.8,8.8,0,0,0,1.3,2.115l0,0a14.731,14.731,0,0,0,3.564,3.243,5.479,5.479,0,0,0,.494.269c.144.072.281.14.4.213.016.008.032.02.048.028a.87.87,0,0,0,.4.1.858.858,0,0,0,.61-.277l1.373-1.373a.908.908,0,0,1,.606-.3.817.817,0,0,1,.578.293l.008.008,2.211,2.211A.794.794,0,0,1,16.8,42.312Z" transform="translate(-0.344 -26.306)"/><path class="a" d="M245.39,87a5.165,5.165,0,0,1,4.206,4.206.538.538,0,0,0,.534.45.717.717,0,0,0,.092-.008.542.542,0,0,0,.445-.626,6.246,6.246,0,0,0-5.089-5.089.545.545,0,0,0-.626.441A.536.536,0,0,0,245.39,87Z" transform="translate(-235.127 -82.477)"/><path class="a" d="M257.785,8.388A10.284,10.284,0,0,0,249.4.008a.541.541,0,1,0-.177,1.068,9.186,9.186,0,0,1,7.489,7.489.538.538,0,0,0,.534.449.716.716,0,0,0,.092-.008A.532.532,0,0,0,257.785,8.388Z" transform="translate(-238.805 0)"/></g></g></svg>