<svg xmlns="http://www.w3.org/2000/svg" width="61.126" height="56.5" viewBox="0 0 61.126 56.5"><defs><style>.a{fill:#94a4be;}</style></defs><g transform="translate(0 -18.4)"><g transform="translate(0 18.4)"><path class="a" d="M49.713,33.157a17.706,17.706,0,0,0-32.807-5.883,10.143,10.143,0,0,0-1.86-.176,9.7,9.7,0,0,0-9.691,9.691,10.593,10.593,0,0,0,.2,2.011A13.486,13.486,0,0,0,0,49.673a14.418,14.418,0,0,0,3.658,9.54,13.055,13.055,0,0,0,9.05,4.55h10.91a1.7,1.7,0,0,0,0-3.394H12.859c-5.141-.314-9.465-5.2-9.465-10.709a10.075,10.075,0,0,1,4.99-8.673,1.711,1.711,0,0,0,.742-2.061,6.158,6.158,0,0,1-.377-2.162,6.309,6.309,0,0,1,6.3-6.3,6.19,6.19,0,0,1,2.149.377,1.7,1.7,0,0,0,2.124-.867A14.311,14.311,0,0,1,46.508,34.69,1.7,1.7,0,0,0,47.915,36.2a12.232,12.232,0,0,1-1.156,24.159H37.5a1.7,1.7,0,0,0,0,3.394h9.452a15.038,15.038,0,0,0,10.081-4.978,15.644,15.644,0,0,0-7.316-25.617Z" transform="translate(0 -18.4)"/><path class="a" d="M179.087,197.291a1.692,1.692,0,0,0,0-2.4L170.1,185.9a1.717,1.717,0,0,0-1.194-.5,1.664,1.664,0,0,0-1.194.5l-8.987,8.987a1.7,1.7,0,0,0,1.194,2.9,1.656,1.656,0,0,0,1.194-.5l6.1-6.1v28.018a1.7,1.7,0,1,0,3.394,0V191.195l6.1,6.1A1.677,1.677,0,0,0,179.087,197.291Z" transform="translate(-138.337 -164.409)"/></g></g></svg>