<svg xmlns="http://www.w3.org/2000/svg" width="16.299" height="16.299" viewBox="0 0 16.299 16.299"><defs><style>.a{fill:#657288;}</style></defs><path class="a" d="M16.258,13.967a.637.637,0,0,0-1.247.26.665.665,0,0,1-.135.558.647.647,0,0,1-.509.242H1.933a.647.647,0,0,1-.509-.242.665.665,0,0,1-.135-.558,7.035,7.035,0,0,1,6.693-5.57q.084,0,.169,0t.169,0a7,7,0,0,1,5.657,3.109.637.637,0,1,0,1.058-.709A8.282,8.282,0,0,0,10.742,7.8a4.33,4.33,0,1,0-5.183,0,8.281,8.281,0,0,0-5.518,6.17A1.934,1.934,0,0,0,1.933,16.3H14.368a1.934,1.934,0,0,0,1.891-2.333ZM5.094,4.33A3.056,3.056,0,1,1,8.3,7.382H8A3.06,3.06,0,0,1,5.094,4.33Z" transform="translate(0)"/></svg>