<svg xmlns="http://www.w3.org/2000/svg" width="19.642" height="15" viewBox="0 0 19.642 15">
    <defs>
        <style>
            .cls-1{fill:#fff}
        </style>
    </defs>
    <path id="add-message" d="M19.642 3.069v8.095a.767.767 0 1 1-1.535 0V3.285L11.442 7.43a3.05 3.05 0 0 1-3.241 0L1.535 3.285v8.646a1.536 1.536 0 0 0 1.535 1.535l12.737-.023a.767.767 0 0 1 0 1.535L3.069 15A3.072 3.072 0 0 1 0 11.931V3.069A3.072 3.072 0 0 1 3.069 0h13.5a3.072 3.072 0 0 1 3.073 3.069zm-2.136-1.217a1.527 1.527 0 0 0-.933-.318H3.069a1.526 1.526 0 0 0-.933.318l6.875 4.275a1.525 1.525 0 0 0 1.621 0zm0 0" class="cls-1"/>
</svg>
