<svg xmlns="http://www.w3.org/2000/svg" width="18.5" height="18.5" viewBox="0 0 18.5 18.5">
    <defs>
        <style>
            .cls-1{fill:#fff}
        </style>
    </defs>
    <path id="answer" d="M14.526 0a3.849 3.849 0 0 0-3.974 3.7 3.527 3.527 0 0 0 .587 1.935L10.6 6.956a.723.723 0 0 0 .961.932l1.613-.711a4.409 4.409 0 0 0 1.348.19 4.129 4.129 0 0 0 2.783-1.046A3.52 3.52 0 0 0 18.5 3.694 3.85 3.85 0 0 0 14.526 0zm0 5.922a2.75 2.75 0 0 1-1.089-.189.723.723 0 0 0-.575 0l-.251.111.02-.048a.723.723 0 0 0-.12-.74A2.078 2.078 0 0 1 12 3.7a2.406 2.406 0 0 1 2.529-2.254 2.407 2.407 0 0 1 2.529 2.249 2.4 2.4 0 0 1-2.532 2.227zm2.845 10.049a2.1 2.1 0 0 1-2.054 2.529H2.1a2.1 2.1 0 0 1-2.055-2.529 8.83 8.83 0 0 1 5.84-6.549 4.665 4.665 0 0 1 2.8-8.375c.078 0 .136 0 .2.005A.723.723 0 0 1 8.818 2.5h-.136a3.216 3.216 0 0 0 0 6.432.72.72 0 0 1 .232.039 8.849 8.849 0 0 1 7.147 3.908.723.723 0 0 1-1.2.807 7.417 7.417 0 0 0-13.4 2.588.652.652 0 0 0 .132.547.644.644 0 0 0 .508.241h13.216a.644.644 0 0 0 .508-.241.652.652 0 0 0 .132-.547.723.723 0 1 1 1.415-.3z" class="cls-1"/>
</svg>
