<svg xmlns="http://www.w3.org/2000/svg" width="22.545" height="22.5" viewBox="0 0 22.545 22.5">
    <defs>
        <style>
            .cls-1{fill:#fff}
        </style>
    </defs>
    <path id="call-back" d="M4.444 3.877a.879.879 0 1 1 .711.362.879.879 0 0 1-.711-.362zm-3.33 5.5a.879.879 0 1 0-.565-1.106.885.885 0 0 0 .565 1.108zm6.931-6.613a.879.879 0 1 0-.836-.608.873.873 0 0 0 .836.608zm-5.7 3.6a.879.879 0 1 0-.193-1.228.874.874 0 0 0 .191 1.228zM.018 11.923a1.119 1.119 0 0 0 .05.164.828.828 0 0 0 .037.078.838.838 0 0 0 .044.074.719.719 0 0 0 .051.069.857.857 0 0 0 .122.122.81.81 0 0 0 .069.051.92.92 0 0 0 .152.081.781.781 0 0 0 .164.05c.028.006.057.01.085.013a.855.855 0 0 0 .173 0c.028 0 .057-.007.085-.013a1.119 1.119 0 0 0 .164-.05.915.915 0 0 0 .152-.081.81.81 0 0 0 .069-.051.877.877 0 0 0 .174-.192.917.917 0 0 0 .081-.152.781.781 0 0 0 .05-.164c.006-.027.01-.057.013-.085s0-.058 0-.087v-.087c0-.029-.007-.057-.013-.085a1.119 1.119 0 0 0-.05-.164.917.917 0 0 0-.081-.152.868.868 0 0 0-.174-.192.727.727 0 0 0-.069-.051.915.915 0 0 0-.152-.081.781.781 0 0 0-.164-.05.791.791 0 0 0-.085-.013.877.877 0 0 0-.173 0c-.028 0-.057.007-.085.013a1.119 1.119 0 0 0-.164.05.92.92 0 0 0-.152.081.727.727 0 0 0-.069.051.857.857 0 0 0-.122.122.719.719 0 0 0-.051.069.837.837 0 0 0-.044.074.828.828 0 0 0-.037.078.781.781 0 0 0-.05.164.885.885 0 0 0-.018.174.89.89 0 0 0 .017.172zm21.648-9.4a.879.879 0 0 0-.879.879v2.377A11.249 11.249 0 0 0 11.25.5a.888.888 0 0 0-.1.006c-.024 0-.047.006-.071.011a.871.871 0 0 0-.269.1l-.04.028a.873.873 0 0 0-.085.063 1.16 1.16 0 0 0-.052.047l-.007.007a.787.787 0 0 0-.047.052.881.881 0 0 0-.065.086l-.026.042a.871.871 0 0 0-.1.269c0 .023-.008.047-.011.071v.012a.86.86 0 0 0 0 .173v.012c0 .023.006.047.011.07a.872.872 0 0 0 .1.269l.025.041a.885.885 0 0 0 .065.088c.015.018.03.035.046.051l.008.008.051.047.014.012a.586.586 0 0 0 .05.037l.022.015.042.026a.873.873 0 0 0 .27.1c.023 0 .046.008.069.011h.013a.828.828 0 0 0 .086 0 9.54 9.54 0 0 1 8.116 4.567h-2.009a.879.879 0 0 0 0 1.758h2.58a2.575 2.575 0 0 0 1.835-.757 2.63 2.63 0 0 0 .77-1.884V3.4a.879.879 0 0 0-.875-.878zm-.234 11.6a.879.879 0 1 0-.543 1.672.888.888 0 0 0 .272.043.879.879 0 0 0 .271-1.715zm-7.2 6.658a.879.879 0 1 0 1.107.565.879.879 0 0 0-1.11-.565zm5.968-3.643a.879.879 0 1 0 .193 1.228.879.879 0 0 0-.193-1.228zm-3.329 2.294a.879.879 0 1 0 1.228.193.879.879 0 0 0-1.226-.193zm5.654-7.853a1.119 1.119 0 0 0-.05-.164.839.839 0 0 0-.037-.078c-.014-.025-.028-.05-.044-.074a.877.877 0 0 0-.243-.243.915.915 0 0 0-.151-.081.781.781 0 0 0-.164-.05.791.791 0 0 0-.085-.013.877.877 0 0 0-.173 0c-.028 0-.057.007-.085.013a1.119 1.119 0 0 0-.164.05.92.92 0 0 0-.152.081.866.866 0 0 0-.192.174.72.72 0 0 0-.051.069.837.837 0 0 0-.044.074.829.829 0 0 0-.037.078.781.781 0 0 0-.05.164.885.885 0 0 0-.017.172.884.884 0 0 0 .257.621.885.885 0 0 0 .134.109.92.92 0 0 0 .152.081.781.781 0 0 0 .164.05.875.875 0 0 0 .344 0 1.119 1.119 0 0 0 .164-.05.915.915 0 0 0 .152-.081.885.885 0 0 0 .134-.109.885.885 0 0 0 .258-.621v-.087c0-.029-.012-.057-.018-.085zM12.173 22.122a.81.81 0 0 0 0-.085v-.014c0-.022-.006-.045-.01-.068a.872.872 0 0 0-.1-.271l-.025-.041-.016-.024-.036-.049-.013-.016-.045-.05-.009-.009a.687.687 0 0 0-.049-.045l-.016-.014-.054-.036-.024-.016-.041-.025a.871.871 0 0 0-.271-.1l-.066-.01a.883.883 0 0 0-.1-.006 9.54 9.54 0 0 1-8.116-4.567h2.009a.879.879 0 0 0 0-1.758H2.605a2.575 2.575 0 0 0-1.835.757A2.63 2.63 0 0 0 0 17.56v2.54a.879.879 0 1 0 1.758 0v-2.377A11.249 11.249 0 0 0 11.293 23a.819.819 0 0 0 .086 0h.012c.023 0 .047-.006.071-.011a.872.872 0 0 0 .269-.1l.042-.026a.877.877 0 0 0 .087-.064l.051-.046.008-.008a.755.755 0 0 0 .046-.051l.012-.015a.897.897 0 0 0 .037-.049l.015-.023.026-.042a.87.87 0 0 0 .1-.27c0-.022.008-.045.01-.068v-.014a.838.838 0 0 0 0-.085zm1.014-8.36l-.8.8a8.269 8.269 0 0 1-2.208-1.633l-.057-.056a8.269 8.269 0 0 1-1.633-2.208l.8-.8c.905-.927.364-1.86-.535-2.793A1.2 1.2 0 0 0 7.081 7l-.012.011a3.059 3.059 0 0 0-.828 2.24A7.7 7.7 0 0 0 8.7 14.339a7.7 7.7 0 0 0 5.083 2.46l.005.005a3.059 3.059 0 0 0 2.24-.828l.011-.012a1.2 1.2 0 0 0-.06-1.667c-.931-.897-1.864-1.441-2.791-.535z" class="cls-1" transform="translate(0 -.501)"/>
</svg>
