<svg xmlns="http://www.w3.org/2000/svg" width="26.401" height="22.843" viewBox="0 0 26.401 22.843">
    <defs>
        <style>
            .cls-1{fill:#fff}
        </style>
    </defs>
    <path id="id-card_1_" d="M24.339 48.113v-7.425a2.065 2.065 0 0 0-2.063-2.063h-7.013a1.031 1.031 0 0 1-1.031-1.031 1.031 1.031 0 1 0-1.032 1.031 1.031 1.031 0 0 1 0 2.063 3.1 3.1 0 0 1-2.917-2.063H4.125a2.065 2.065 0 0 0-2.063 2.063v12.53a2.065 2.065 0 0 0 2.063 2.063h18.151a2.065 2.065 0 0 0 2.063-2.063 1.031 1.031 0 0 1 2.063 0 4.13 4.13 0 0 1-4.125 4.125H4.125A4.13 4.13 0 0 1 0 53.218v-12.53a4.13 4.13 0 0 1 4.125-4.125h6.158a3.094 3.094 0 0 1 5.834 0h6.158a4.13 4.13 0 0 1 4.125 4.125v7.425a1.031 1.031 0 0 1-2.063 0zm-3.987-2.868a1.031 1.031 0 0 0-1.031-1.031H6.964a1.031 1.031 0 0 0 0 2.063H19.32a1.031 1.031 0 0 0 1.032-1.032zM6.964 48.391a1.031 1.031 0 0 0 0 2.063h10.81a1.031 1.031 0 1 0 0-2.063z" class="cls-1" data-name="id-card (1)" transform="translate(0 -34.5)"/>
</svg>
