<svg xmlns="http://www.w3.org/2000/svg" width="30.068" height="30.061" viewBox="0 0 30.068 30.061">
  <g id="network" transform="translate(-0.493 -0.496)">
    <path id="Path_72" data-name="Path 72" d="M27.241,12.715a2.812,2.812,0,0,0-2.771,2.352c-.015,0-.027-.008-.041-.008h-.937c-.008,0-.015,0-.023,0a7.923,7.923,0,0,0-2-4.822s.008,0,.01-.007L23.355,8.36a.455.455,0,0,0,.1-.146,1.881,1.881,0,1,0-.615-.613.455.455,0,0,0-.146.1L20.815,9.572s0,.007-.007.01a7.923,7.923,0,0,0-4.82-2c0-.008,0-.015,0-.023V5.685a.387.387,0,0,0-.009-.047,2.343,2.343,0,1,0-.919,0,.387.387,0,0,0-.009.047V7.56c0,.008,0,.015,0,.023a7.923,7.923,0,0,0-4.822,2s0-.007-.007-.01L6.014,5.354a.455.455,0,0,0-.146-.1,1.881,1.881,0,1,0-.613.615.455.455,0,0,0,.1.146l4.218,4.218s.007,0,.01.007a7.923,7.923,0,0,0-2,4.82c-.008,0-.015,0-.023,0H6.62c-.015,0-.027.007-.041.008a2.812,2.812,0,1,0,0,.92c.015,0,.027.008.041.008h.937c.008,0,.015,0,.023,0a7.92,7.92,0,0,0,1.973,4.793.435.435,0,0,0,.081.09,7.94,7.94,0,0,0,5.426,2.6c0,.008,0,.015,0,.023v1.875a.387.387,0,0,0,.009.047,2.343,2.343,0,1,0,.919,0,.387.387,0,0,0,.009-.047V23.494c0-.008,0-.015,0-.023a7.923,7.923,0,0,0,4.822-2s0,.007.007.01l1.875,1.875a.455.455,0,0,0,.146.1,1.881,1.881,0,1,0,.613-.615.455.455,0,0,0-.1-.146L21.48,20.818h0c.008-.01.011-.023.018-.035a7.92,7.92,0,0,0,1.971-4.792c.008,0,.015,0,.023,0h.937c.015,0,.027-.007.041-.008a2.812,2.812,0,1,0,2.771-3.272Zm-2.812-7.03a.937.937,0,1,1-.937.937A.937.937,0,0,1,24.429,5.685ZM4.277,5.216a.937.937,0,1,1,.937-.937A.937.937,0,0,1,4.277,5.216ZM3.808,17.4a1.875,1.875,0,1,1,1.875-1.875A1.875,1.875,0,0,1,3.808,17.4Zm20.621,6.093a.937.937,0,1,1-.937.937A.937.937,0,0,1,24.429,23.494ZM14.119,3.342a1.406,1.406,0,1,1,1.406,1.406A1.406,1.406,0,0,1,14.119,3.342Zm2.812,24.37a1.406,1.406,0,1,1-1.406-1.406A1.406,1.406,0,0,1,16.931,27.712Zm-1.406-5.155a7,7,0,0,1-5.089-2.194,5.167,5.167,0,0,1,3.791-4.38.469.469,0,0,0,.109-.872,2.03,2.03,0,0,1-1.154-1.928,2.343,2.343,0,0,1,4.687,0,2.03,2.03,0,0,1-1.154,1.928.469.469,0,0,0,.109.872,5.167,5.167,0,0,1,3.791,4.38,7,7,0,0,1-5.089,2.194Zm5.848-3.136a6.132,6.132,0,0,0-3.427-4.051,2.961,2.961,0,0,0,.86-2.187,3.281,3.281,0,1,0-6.561,0,2.961,2.961,0,0,0,.86,2.187,6.132,6.132,0,0,0-3.427,4.051,7.03,7.03,0,1,1,11.7,0ZM27.241,17.4a1.875,1.875,0,1,1,1.875-1.875A1.875,1.875,0,0,1,27.241,17.4Z" transform="translate(0 0)" fill="none" stroke="#0089e1" stroke-width="1"/>
    <path id="Path_73" data-name="Path 73" d="M7.824,49.137,5.949,51.012a.455.455,0,0,0-.1.146,1.881,1.881,0,1,0,.615.613.455.455,0,0,0,.146-.1L8.488,49.8a.469.469,0,1,0-.663-.663ZM4.875,53.687a.937.937,0,1,1,.937-.937A.937.937,0,0,1,4.875,53.687Z" transform="translate(-1.066 -25.506)" fill="none" stroke="#0089e1" stroke-width="1"/>
    <path id="Path_74" data-name="Path 74" d="M16.075,45.137l-.937.937a.469.469,0,1,0,.663.663l.937-.937a.469.469,0,1,0-.663-.663Z" transform="translate(-7.443 -23.381)" fill="none" stroke="#0089e1" stroke-width="1"/>
    <path id="Path_75" data-name="Path 75" d="M55.469,6.875a.469.469,0,0,0,.331-.137l.937-.937a.469.469,0,1,0-.663-.663l-.937.937a.469.469,0,0,0,.331.8Z" transform="translate(-28.696 -2.127)" fill="none" stroke="#0089e1" stroke-width="1"/>
  </g>
</svg>
