<svg xmlns="http://www.w3.org/2000/svg" width="22.34" height="26.577" viewBox="0 0 22.34 26.577">
    <defs>
        <style>
            .cls-1{fill:none}.cls-2,.cls-3{stroke:none}.cls-3{fill:#657288}
        </style>
    </defs>
    <g id="notifications-button_1_" data-name="notifications-button (1)" transform="translate(-36.25 2)">
        <g id="notifications" transform="translate(38.25)">
            <g id="Path_26" class="cls-1" data-name="Path 26">
                <path d="M47.42 22.577a2.164 2.164 0 0 0 2.158-2.158h-4.316a2.164 2.164 0 0 0 2.158 2.158zm7.012-7.477V9.17a6.942 6.942 0 0 0-5.394-6.8v-.752a1.618 1.618 0 0 0-3.236 0v.755a6.942 6.942 0 0 0-5.394 6.8V15.1l-2.158 2.161v1.079h18.34v-1.079z" class="cls-2" transform="translate(-38.25)"/>
                <path d="M47.42 22.577a2.164 2.164 0 0 0 2.158-2.158h-4.316c0 1.187.971 2.158 2.158 2.158m9.17-4.237v-1.079l-2.158-2.157V9.17c0-3.344-2.265-6.041-5.394-6.797v-.755C49.038.755 48.283 0 47.42 0c-.863 0-1.618.755-1.618 1.618v.755c-3.129.756-5.394 3.453-5.394 6.797v5.934L38.25 17.26v1.08h18.34m-9.17 6.236a4.162 4.162 0 0 1-4.158-4.158v-.079H36.25V16.433l.586-.586 1.572-1.572V9.17c0-2.085.68-4.03 1.967-5.625A9.081 9.081 0 0 1 43.874.913C44.213-.724 45.699-2 47.42-2c1.72 0 3.207 1.276 3.546 2.913a9.081 9.081 0 0 1 3.5 2.632c1.286 1.595 1.966 3.54 1.966 5.625v5.105l1.572 1.572.586.586v3.908h-7.012v.078a4.162 4.162 0 0 1-4.158 4.158z" class="cls-3" transform="translate(-38.25)"/>
            </g>
        </g>
    </g>
</svg>
