<svg xmlns="http://www.w3.org/2000/svg" width="37.072" height="37" viewBox="0 0 37.072 37">
    <defs>
        <style>
            .cls-1{fill:#4c4c4c}
        </style>
    </defs>
    <path id="call-back" d="M7.307 6.052a1.445 1.445 0 1 1 1.17.595 1.445 1.445 0 0 1-1.17-.595zM1.831 15.1A1.445 1.445 0 1 0 .9 13.278a1.455 1.455 0 0 0 .931 1.822zm11.4-10.877a1.446 1.446 0 1 0-1.374-1 1.435 1.435 0 0 0 1.372 1zm-9.376 5.92a1.445 1.445 0 1 0-.318-2.019 1.438 1.438 0 0 0 .315 2.019zm-3.826 9.14a1.31 1.31 0 0 0 .083.27 1.361 1.361 0 0 0 .061.128 1.377 1.377 0 0 0 .072.121 1.183 1.183 0 0 0 .085.114 1.409 1.409 0 0 0 .2.2 1.332 1.332 0 0 0 .114.085 1.513 1.513 0 0 0 .249.133 1.501 1.501 0 0 0 .41.104 1.407 1.407 0 0 0 .285 0 1.69 1.69 0 0 0 .277-.056c.045-.014.09-.03.133-.048a1.505 1.505 0 0 0 .249-.133 1.332 1.332 0 0 0 .114-.085 1.442 1.442 0 0 0 .285-.315 1.508 1.508 0 0 0 .133-.249 1.501 1.501 0 0 0 .104-.41c.005-.046.007-.1.007-.142s0-.095-.007-.142-.011-.094-.021-.14a1.617 1.617 0 0 0-.083-.27 1.508 1.508 0 0 0-.133-.249 1.428 1.428 0 0 0-.285-.315 1.2 1.2 0 0 0-.114-.085A1.505 1.505 0 0 0 2 17.666a1.501 1.501 0 0 0-.41-.104 1.442 1.442 0 0 0-.285 0 1.69 1.69 0 0 0-.277.056c-.045.014-.09.03-.133.048a1.513 1.513 0 0 0-.249.133 1.2 1.2 0 0 0-.114.085 1.409 1.409 0 0 0-.2.2 1.183 1.183 0 0 0-.085.114 1.377 1.377 0 0 0-.072.121 1.362 1.362 0 0 0-.061.128 1.501 1.501 0 0 0-.083.27A1.456 1.456 0 0 0 0 19a1.464 1.464 0 0 0 .028.283zm35.6-15.458a1.445 1.445 0 0 0-1.445 1.445v3.91A18.5 18.5 0 0 0 18.5.5a1.46 1.46 0 0 0-.16.01c-.039 0-.078.01-.116.018a1.432 1.432 0 0 0-.442.165c-.024.014-.048.028-.072.044a1.436 1.436 0 0 0-.14.1c-.03.025-.058.051-.085.078l-.012.015a1.036 1.036 0 0 0-.077.085 1.448 1.448 0 0 0-.106.143 1.273 1.273 0 0 0-.042.069 1.433 1.433 0 0 0-.166.442 1.163 1.163 0 0 0-.018.116v.019a1.414 1.414 0 0 0 0 .284v.019c0 .039.01.078.018.116a1.433 1.433 0 0 0 .166.442l.041.068a1.455 1.455 0 0 0 .107.144c.024.029.05.057.076.084l.012.012c.027.027.055.052.084.077l.023.019c.026.021.054.042.082.062l.036.025.07.042a1.435 1.435 0 0 0 .444.166c.038.007.076.013.114.017h.021a1.362 1.362 0 0 0 .141.007A15.689 15.689 0 0 1 31.847 10.9h-3.3a1.445 1.445 0 0 0 0 2.891l4.228-.006h.014a4.235 4.235 0 0 0 3.017-1.244 4.325 4.325 0 0 0 1.266-3.1v-4.17a1.445 1.445 0 0 0-1.445-1.446zM35.242 22.9a1.445 1.445 0 1 0-.893 2.749 1.46 1.46 0 0 0 .447.071 1.445 1.445 0 0 0 .446-2.82zM23.4 33.851a1.445 1.445 0 1 0 1.821.929 1.445 1.445 0 0 0-1.821-.929zm9.823-5.992a1.445 1.445 0 1 0 .318 2.019 1.445 1.445 0 0 0-.32-2.019zm-5.475 3.772a1.445 1.445 0 1 0 2.019.318 1.445 1.445 0 0 0-2.021-.317zm9.3-12.913a1.31 1.31 0 0 0-.083-.27 1.379 1.379 0 0 0-.061-.128 1.482 1.482 0 0 0-.072-.121 1.442 1.442 0 0 0-.4-.4 1.5 1.5 0 0 0-.249-.133 1.501 1.501 0 0 0-.41-.104 1.442 1.442 0 0 0-.285 0 1.69 1.69 0 0 0-.277.056c-.045.014-.09.03-.133.048a1.513 1.513 0 0 0-.249.133 1.424 1.424 0 0 0-.315.285 1.183 1.183 0 0 0-.085.114 1.376 1.376 0 0 0-.072.121 1.363 1.363 0 0 0-.061.128 1.501 1.501 0 0 0-.083.27 1.455 1.455 0 0 0-.028.283 1.453 1.453 0 0 0 .423 1.022 1.456 1.456 0 0 0 .22.18 1.513 1.513 0 0 0 .249.133 1.501 1.501 0 0 0 .27.083 1.439 1.439 0 0 0 .565 0 1.31 1.31 0 0 0 .27-.083 1.505 1.505 0 0 0 .249-.133 1.455 1.455 0 0 0 .22-.18A1.455 1.455 0 0 0 37.073 19c0-.047 0-.095-.007-.142s-.012-.093-.021-.14zm-17.03 17.338a1.333 1.333 0 0 0-.007-.139v-.024c0-.037-.01-.074-.017-.111a1.433 1.433 0 0 0-.166-.445l-.041-.068-.026-.039a1.516 1.516 0 0 0-.06-.08l-.021-.026a1.953 1.953 0 0 0-.074-.082l-.015-.015a1.42 1.42 0 0 0-.081-.074l-.027-.022q-.038-.031-.079-.059l-.04-.027-.068-.041a1.432 1.432 0 0 0-.445-.166c-.036-.007-.073-.012-.109-.017a1.451 1.451 0 0 0-.165-.01A15.688 15.688 0 0 1 5.226 27.1h3.3a1.445 1.445 0 0 0 0-2.891l-4.226.002h-.016a4.235 4.235 0 0 0-3.017 1.244A4.325 4.325 0 0 0 0 28.553v4.179a1.445 1.445 0 1 0 2.891 0v-3.91a18.5 18.5 0 0 0 15.68 8.678 1.347 1.347 0 0 0 .142-.007h.019c.039 0 .078-.01.116-.018a1.434 1.434 0 0 0 .442-.166l.07-.042a1.443 1.443 0 0 0 .143-.106.997.997 0 0 0 .083-.076l.014-.014c.026-.027.052-.054.076-.083l.02-.024c.021-.026.041-.053.061-.081l.025-.038a.997.997 0 0 0 .042-.07 1.431 1.431 0 0 0 .166-.445c.007-.037.013-.075.017-.112v-.023a1.378 1.378 0 0 0 .007-.14zm1.668-13.748l-1.317 1.307a13.6 13.6 0 0 1-3.631-2.686l-.093-.093a13.6 13.6 0 0 1-2.686-3.631l1.307-1.317c1.489-1.525.6-3.059-.88-4.593a1.976 1.976 0 0 0-2.742-.1l-.02.018a5.03 5.03 0 0 0-1.362 3.687c.013 2.605 1.442 5.753 4.046 8.358s5.753 4.033 8.358 4.046l.009.009a5.03 5.03 0 0 0 3.685-1.363l.018-.02a1.976 1.976 0 0 0-.1-2.742c-1.533-1.479-3.067-2.369-4.592-.88z" class="cls-1" transform="translate(0 -.501)"/>
</svg>
