<svg xmlns="http://www.w3.org/2000/svg" xmlns:xlink="http://www.w3.org/1999/xlink" width="25.722" height="25.723" viewBox="0 0 25.722 25.723">
  <defs>
    <clipPath id="clip-path">
      <rect width="25.722" height="25.722" fill="none"/>
    </clipPath>
  </defs>
  <g id="Group_95" data-name="Group 95" transform="translate(-67.869 -474.777)">
    <g id="facebook_1_" data-name="facebook (1)" transform="translate(67.869 474.778)" clip-path="url(#clip-path)">
      <path id="Path_52" data-name="Path 52" d="M157.086,125.605h0a1.976,1.976,0,0,0-1.976-1.957H153.3V120.9a1.389,1.389,0,0,1,1.389-1.389h.664a1.777,1.777,0,0,0,1.777-1.777h0a1.777,1.777,0,0,0-1.777-1.777h-1.634a4.37,4.37,0,0,0-4.37,4.37v3.319H148.06a1.976,1.976,0,0,0-1.976,1.976h0a1.976,1.976,0,0,0,1.976,1.976h1.287v7.525H153.3V127.6h1.811A1.976,1.976,0,0,0,157.086,125.605Z" transform="translate(-138.745 -110.133)" fill="none"/>
      <g id="Group_73" data-name="Group 73" transform="translate(0 0)">
        <path id="Path_53" data-name="Path 53" d="M139.5,122.063h-3.952a.73.73,0,0,1-.73-.73v-6.8h-.557a2.706,2.706,0,0,1,0-5.411h.557v-2.589a5.106,5.106,0,0,1,5.1-5.1h1.634a2.507,2.507,0,1,1,0,5.013h-.664a.66.66,0,0,0-.659.659v2.017h1.082a2.714,2.714,0,0,1,2.705,2.679,2.706,2.706,0,0,1-2.706,2.732h-1.082v6.8A.73.73,0,0,1,139.5,122.063Zm-3.222-1.459h2.493v-6.8a.73.73,0,0,1,.73-.73h1.811a1.246,1.246,0,0,0,1.246-1.258,1.25,1.25,0,0,0-1.246-1.234H139.5a.73.73,0,0,1-.73-.73v-2.747a2.121,2.121,0,0,1,2.118-2.118h.664a1.047,1.047,0,1,0,0-2.095h-1.634a3.645,3.645,0,0,0-3.641,3.641v3.319a.73.73,0,0,1-.73.73h-1.287a1.246,1.246,0,0,0,0,2.493h1.287a.73.73,0,0,1,.73.73v6.8Z" transform="translate(-124.951 -96.341)" fill="#555"/>
        <path id="Path_54" data-name="Path 54" d="M211.53,25.722h-1.9a.73.73,0,1,1,0-1.459h1.9a2.539,2.539,0,0,0,2.537-2.537V4a2.539,2.539,0,0,0-2.537-2.537H200.574a.73.73,0,1,1,0-1.459H211.53a4,4,0,0,1,4,4v17.73A4,4,0,0,1,211.53,25.722Z" transform="translate(-189.804 0)" fill="#555"/>
        <path id="Path_55" data-name="Path 55" d="M14.554,25.722H4a4,4,0,0,1-4-4V4A4,4,0,0,1,4,0H5.638a.73.73,0,0,1,0,1.459H4A2.539,2.539,0,0,0,1.459,4v17.73A2.539,2.539,0,0,0,4,24.263H14.554a.73.73,0,0,1,0,1.459Z" transform="translate(0 0)" fill="#555"/>
      </g>
    </g>
  </g>
</svg>
