<svg xmlns="http://www.w3.org/2000/svg" width="24.479" height="24.479" viewBox="0 0 24.479 24.479">
  <g id="Group_74" data-name="Group 74" transform="translate(0 0)">
    <path id="Path_56" data-name="Path 56" d="M210.966,24.479H209.16a.694.694,0,1,1,0-1.389h1.806a2.417,2.417,0,0,0,2.414-2.414V3.8a2.417,2.417,0,0,0-2.414-2.414H200.538a.694.694,0,1,1,0-1.389h10.427a3.807,3.807,0,0,1,3.8,3.8V20.676A3.807,3.807,0,0,1,210.966,24.479Z" transform="translate(-190.289)" fill="#fff"/>
    <path id="Path_57" data-name="Path 57" d="M13.85,24.479H3.8a3.807,3.807,0,0,1-3.8-3.8V3.8A3.807,3.807,0,0,1,3.8,0H5.365a.694.694,0,1,1,0,1.389H3.8A2.417,2.417,0,0,0,1.389,3.8V20.676A2.417,2.417,0,0,0,3.8,23.09H13.85a.694.694,0,1,1,0,1.389Z" fill="#fff"/>
  </g>
</svg>
