<svg xmlns="http://www.w3.org/2000/svg" width="28.55" height="28.55" viewBox="0 0 28.55 28.55"><defs><style>.a{fill:#0089e1;}</style></defs><g transform="translate(0)"><g transform="translate(0)"><path class="a" d="M28.478,24.464a1.115,1.115,0,0,0-2.184.455,1.165,1.165,0,0,1-.236.977,1.133,1.133,0,0,1-.892.424H3.385a1.133,1.133,0,0,1-.892-.424,1.165,1.165,0,0,1-.236-.977A12.322,12.322,0,0,1,13.98,15.162q.147.006.3.006t.3-.006a12.269,12.269,0,0,1,9.908,5.446,1.115,1.115,0,1,0,1.853-1.242,14.507,14.507,0,0,0-7.517-5.711,7.584,7.584,0,1,0-9.078,0A14.506,14.506,0,0,0,.073,24.464,3.388,3.388,0,0,0,3.385,28.55H25.166a3.388,3.388,0,0,0,3.312-4.086ZM8.922,7.584a5.353,5.353,0,1,1,5.624,5.346l-.271,0-.27,0A5.36,5.36,0,0,1,8.922,7.584Z" transform="translate(0)"/></g></g></svg>